<svg width="419.90000000000003" height="86.59332034704155" viewBox="0 0 369.9130434782609 76.28482656456812" class="looka-1j8o68f"><defs id="SvgjsDefs1337"></defs><g id="SvgjsG1338" featurekey="tOsHRK-0" transform="matrix(0.89937310585988,0,0,0.89937310585988,-6.608367191274839,-6.821746328819098)" fill="#111111"><title xmlns="http://www.w3.org/2000/svg">108all</title><path xmlns="http://www.w3.org/2000/svg" d="M79.89,37.59H20.11a12.41,12.41,0,1,0,0,24.81H79.89a12.41,12.41,0,0,0,0-24.81Zm0,18.81H20.11a6.41,6.41,0,1,1,0-12.81H79.89a6.41,6.41,0,0,1,0,12.81Z"></path><path xmlns="http://www.w3.org/2000/svg" d="M24.85,47H21.1a3,3,0,1,0,0,6h3.75a3,3,0,0,0,0-6Z"></path><path xmlns="http://www.w3.org/2000/svg" d="M42.85,47H39.1a3,3,0,1,0,0,6h3.75a3,3,0,0,0,0-6Z"></path><path xmlns="http://www.w3.org/2000/svg" d="M79.89,67.59H20.11a12.41,12.41,0,1,0,0,24.81H79.89a12.41,12.41,0,0,0,0-24.81Zm0,18.81H20.11a6.41,6.41,0,1,1,0-12.81H79.89a6.41,6.41,0,0,1,0,12.81Z"></path><path xmlns="http://www.w3.org/2000/svg" d="M24.85,77H21.1a3,3,0,1,0,0,6h3.75a3,3,0,0,0,0-6Z"></path><path xmlns="http://www.w3.org/2000/svg" d="M42.85,77H39.1a3,3,0,1,0,0,6h3.75a3,3,0,0,0,0-6Z"></path><path xmlns="http://www.w3.org/2000/svg" d="M79.89,7.59H20.11a12.41,12.41,0,1,0,0,24.81H79.89a12.41,12.41,0,0,0,0-24.81Zm0,18.81H20.11a6.41,6.41,0,1,1,0-12.81H79.89a6.41,6.41,0,0,1,0,12.81Z"></path><path xmlns="http://www.w3.org/2000/svg" d="M24.85,17H21.1a3,3,0,0,0,0,6h3.75a3,3,0,0,0,0-6Z"></path><path xmlns="http://www.w3.org/2000/svg" d="M42.85,17H39.1a3,3,0,0,0,0,6h3.75a3,3,0,0,0,0-6Z"></path></g><g id="SvgjsG1339" featurekey="dVtZHI-0" transform="matrix(3.1969309349047035,0,0,3.1969309349047035,96.00000190551933,-0.5549864322765217)" fill="#111111"><path d="M4.68 20 l0.06 -0.64002 c-0.76 -0.08 -1.4033 -0.33666 -1.93 -0.77 s-0.95 -0.97 -1.27 -1.61 s-0.55 -1.3533 -0.69 -2.14 s-0.21 -1.5733 -0.21 -2.36 l0 -0.74 c0 -0.85334 0.08666 -1.69 0.26 -2.51 s0.44 -1.55 0.8 -2.19 s0.82334 -1.1567 1.39 -1.55 s1.2433 -0.59 2.03 -0.59 c0.68 0 1.2 0.08666 1.56 0.26 s0.68666 0.37334 0.98 0.6 l0.4 -0.5 c-0.38666 -0.30666 -0.79666 -0.55 -1.23 -0.73 s-1.0033 -0.27 -1.71 -0.27 c-1.5333 0 -2.77 0.68334 -3.71 2.05 s-1.41 3.1766 -1.41 5.43 l0 0.74 c0 2.16 0.41666 3.9134 1.25 5.26 s1.9767 2.1 3.43 2.26 z M5.78 19.999980469 c1.1333 -0.08 2.1134 -0.46 2.94 -1.14 l0.12 -0.1 l0 -5.34 l-3.94 0 l0 0.66 l3.3 0 l0 4.38 c-0.69334 0.52 -1.5133 0.82 -2.46 0.9 z M15.84 15.219999999999999 c0.85334 -0.48 1.5067 -1.1567 1.96 -2.03 s0.68 -1.8633 0.68 -2.97 l0 -0.28 c0 -1.64 -0.49 -3 -1.47 -4.08 s-2.3766 -1.62 -4.19 -1.62 l-1.38 0 l0 6.34 c0.22666 0.01334 0.45332 0.02 0.67998 0.02 l0 -5.72 l0.66 0 c1.64 0 2.88 0.47666 3.72 1.43 s1.26 2.1766 1.26 3.67 l0 0.22 c0 1.48 -0.42 2.6934 -1.26 3.64 s-2.08 1.42 -3.72 1.42 l-0.66 0 l0 0 l-0.68 0 l0 0.64 c0.4 0.01334 0.66666 0.02 0.8 0.02 l0.58 0 c0.92 0 1.7267 -0.14 2.42 -0.42 l2.48 4.5 l0.8 0 z M21.679999999999996 14.16 l0 -9.36 l4.8 0 l0 -0.56 l-5.36 0 l0 9.92 l0.56 0 z M26.679999999999996 20 l0 -0.54 l-5 0 l0 -4.14 l0.8 0 l0 -0.54 l-1.36 0 l0 5.22 l5.56 0 z M29.839999999999996 14.16 l0 -9.36 l4.8 0 l0 -0.56 l-5.36 0 l0 9.92 l0.56 0 z M34.839999999999996 20 l0 -0.54 l-5 0 l0 -4.14 l0.8 0 l0 -0.54 l-1.36 0 l0 5.22 l5.56 0 z M44.42 4.58 l-0.000019531 11.56 c0 0.36 0.0066602 0.76 0.02 1.2 s0.02 0.66666 0.02 0.68 c-0.02666 -0.04 -0.12332 -0.25666 -0.28998 -0.65 s-0.33 -0.74334 -0.49 -1.05 l-0.28 -0.54 l-0.72 0 l2.2 4.22 l0.18 0 l0 -15.42 l-0.64 0 z M38.8 7.9399999999999995 l0.27998 0.54 l0.72 0 l-2.22 -4.24 l-0.14 0 l0 15.46 l0.62 0 l0 -11.6 c0 -0.33334 -0.0066602 -0.72334 -0.02 -1.17 s-0.02 -0.67666 -0.02 -0.69 c0.01334 0.04 0.10668 0.26 0.28002 0.66 s0.34 0.74666 0.5 1.04 z M47.66 10.94 l0.000039062 9.06 l3.84 0 c1.1467 0 2.0534 -0.40666 2.72 -1.22 s1 -1.8667 1 -3.16 c0 -0.34666 -0.04334 -0.74332 -0.13 -1.19 s-0.23332 -0.88 -0.43998 -1.3 s-0.48666 -0.8 -0.84 -1.14 s-0.81 -0.57666 -1.37 -0.71 c0.56 -0.34666 0.96666 -0.81 1.22 -1.39 s0.38 -1.19 0.38 -1.83 c0 -1.2267 -0.34 -2.17 -1.02 -2.83 s-1.6067 -0.99 -2.78 -0.99 l-2.58 0 l0 6.22 l0.7 0 l-0.02 -5.4 l1.96 0 c1.1067 0 1.8867 0.29 2.34 0.87 s0.68 1.29 0.68 2.13 c0 0.90666 -0.20666 1.61 -0.62 2.11 s-0.98 0.75 -1.7 0.75 l-2.62 0 l0.44 0.88 l2.68 0 c0.54666 0 1.0133 0.12334 1.4 0.37 s0.70332 0.55666 0.94998 0.93 s0.43 0.79334 0.55 1.26 s0.18 0.92 0.18 1.36 c0 0.42666 -0.06 0.84666 -0.18 1.26 s-0.3 0.78334 -0.54 1.11 s-0.55334 0.59 -0.94 0.79 s-0.84666 0.3 -1.38 0.3 l-3.2 0 l0.02 -8.24 l-0.7 0 z M63.16 6.140000000000001 c0 0.08 0.23666 0.84334 0.71 2.29 s0.99 3.03 1.55 4.75 s1.3133 3.9934 2.26 6.82 l0.86 0 l-5.3 -15.76 l-0.16 0 l-5.26 15.76 l0.82 0 z M62.8 15.52 l-0.72 0 l1.2 4.48 l0.72 0 z M73.21999999999998 11.02 l1.78 1.66 c0.56 0.52 1 1.0767 1.32 1.67 s0.48 1.19 0.48 1.79 l0 0.26 c0.01334 0.42666 -0.04 0.80666 -0.16 1.14 l0.74 0 c0.10666 -0.36 0.15332 -0.73334 0.13998 -1.12 l0 -0.28 c0 -0.72 -0.18334 -1.4067 -0.55 -2.06 s-0.87666 -1.2933 -1.53 -1.92 l-1.72 -1.62 c-0.54666 -0.52 -0.99666 -1.0067 -1.35 -1.46 s-0.53 -1.02 -0.53 -1.7 l0 -0.12 c0 -0.70666 0.19666 -1.2767 0.59 -1.71 s0.94334 -0.65 1.65 -0.65 c0.50666 0 0.92 0.07666 1.24 0.23 s0.64666 0.38334 0.98 0.69 l0.46 -0.52 c-0.37334 -0.34666 -0.75668 -0.60666 -1.15 -0.78 s-0.90334 -0.26 -1.53 -0.26 c-0.81334 0 -1.5033 0.26334 -2.07 0.79 s-0.85 1.2567 -0.85 2.19 l0 0.16 c0 0.76 0.19 1.41 0.57 1.95 s0.87666 1.0967 1.49 1.67 z M77.09999999999998 18.3 l-0.82002 0 c-0.46666 0.68 -1.2133 1.0267 -2.24 1.04 c-0.34666 0 -0.66 -0.04 -0.94 -0.12 l0 0.7 c0.28 0.05334 0.59334 0.08 0.94 0.08 c0.72 0 1.34 -0.14666 1.86 -0.44 s0.92 -0.71334 1.2 -1.26 z M80.67999999999999 14.16 l0 -9.36 l4.8 0 l0 -0.56 l-5.36 0 l0 9.92 l0.56 0 z M85.67999999999999 20 l0 -0.54 l-5 0 l0 -4.14 l0.8 0 l0 -0.54 l-1.36 0 l0 5.22 l5.56 0 z"></path></g></svg>